<?xml version="1.0" encoding="UTF-8"?>
<!DOCTYPE svg PUBLIC "-//W3C//DTD SVG 1.1//EN" "http://www.w3.org/Graphics/SVG/1.1/DTD/svg11.dtd">
<svg version="1.1" xmlns="http://www.w3.org/2000/svg" xmlns:xlink="http://www.w3.org/1999/xlink" x="0" y="0" width="460" height="165" viewBox="0, 0, 460, 165">
  <g id="Layer_1">
    <text transform="matrix(1, 0, 0, 1, 37.224, 21)">
      <tspan x="-25.069" y="3.5" font-family="Helvetica-Light" font-size="11" fill="#000000">Scratch 1:</tspan>
    </text>
    <text transform="matrix(1, 0, 0, 1, 37.224, 48.875)">
      <tspan x="-25.069" y="3.5" font-family="Helvetica-Light" font-size="11" fill="#000000">Scratch 2:</tspan>
    </text>
    <text transform="matrix(1, 0, 0, 1, 37.224, 76.75)">
      <tspan x="-25.069" y="3.5" font-family="Helvetica-Light" font-size="11" fill="#000000">Scratch 3:</tspan>
    </text>
    <text transform="matrix(1, 0, 0, 1, 37.224, 104.625)">
      <tspan x="-25.069" y="3.5" font-family="Helvetica-Light" font-size="11" fill="#000000">Scratch 4:</tspan>
    </text>
    <text transform="matrix(1, 0, 0, 1, 37.224, 132.5)">
      <tspan x="-25.069" y="3.5" font-family="Helvetica-Light" font-size="11" fill="#000000">Scratch 5:</tspan>
    </text>
    <g>
      <path d="M71.5,12.5 L89.5,12.5 L89.5,30.5 L71.5,30.5 L71.5,12.5 z" fill-opacity="0" stroke="#000000" stroke-width="1"/>
      <path d="M89.5,12.5 L107.5,12.5 L107.5,30.5 L89.5,30.5 L89.5,12.5 z" fill-opacity="0" stroke="#000000" stroke-width="1"/>
      <path d="M107.5,12.5 L125.5,12.5 L125.5,30.5 L107.5,30.5 L107.5,12.5 z" fill-opacity="0" stroke="#000000" stroke-width="1"/>
      <path d="M125.5,12.5 L143.5,12.5 L143.5,30.5 L125.5,30.5 L125.5,12.5 z" fill-opacity="0" stroke="#000000" stroke-width="1"/>
      <path d="M143.5,12.5 L161.5,12.5 L161.5,30.5 L143.5,30.5 L143.5,12.5 z" fill-opacity="0" stroke="#000000" stroke-width="1"/>
      <path d="M161.5,12.5 L179.5,12.5 L179.5,30.5 L161.5,30.5 L161.5,12.5 z" fill-opacity="0" stroke="#000000" stroke-width="1"/>
      <path d="M179.5,12.5 L197.5,12.5 L197.5,30.5 L179.5,30.5 L179.5,12.5 z" fill-opacity="0" stroke="#000000" stroke-width="1"/>
      <path d="M197.5,12.5 L215.5,12.5 L215.5,30.5 L197.5,30.5 L197.5,12.5 z" fill-opacity="0" stroke="#000000" stroke-width="1"/>
      <path d="M215.5,12.5 L233.5,12.5 L233.5,30.5 L215.5,30.5 L215.5,12.5 z" fill-opacity="0" stroke="#000000" stroke-width="1"/>
      <path d="M233.5,12.5 L251.5,12.5 L251.5,30.5 L233.5,30.5 L233.5,12.5 z" fill-opacity="0" stroke="#000000" stroke-width="1"/>
      <path d="M251.5,12.5 L269.5,12.5 L269.5,30.5 L251.5,30.5 L251.5,12.5 z" fill-opacity="0" stroke="#000000" stroke-width="1"/>
      <path d="M269.5,12.5 L287.5,12.5 L287.5,30.5 L269.5,30.5 L269.5,12.5 z" fill-opacity="0" stroke="#000000" stroke-width="1"/>
      <path d="M287.5,12.5 L305.5,12.5 L305.5,30.5 L287.5,30.5 L287.5,12.5 z" fill-opacity="0" stroke="#000000" stroke-width="1"/>
      <path d="M305.5,12.5 L323.5,12.5 L323.5,30.5 L305.5,30.5 L305.5,12.5 z" fill-opacity="0" stroke="#000000" stroke-width="1"/>
      <path d="M323.5,12.5 L341.5,12.5 L341.5,30.5 L323.5,30.5 L323.5,12.5 z" fill-opacity="0" stroke="#000000" stroke-width="1"/>
      <path d="M341.5,12.5 L359.5,12.5 L359.5,30.5 L341.5,30.5 L341.5,12.5 z" fill-opacity="0" stroke="#000000" stroke-width="1"/>
      <path d="M359.5,12.5 L377.5,12.5 L377.5,30.5 L359.5,30.5 L359.5,12.5 z" fill-opacity="0" stroke="#000000" stroke-width="1"/>
      <path d="M377.5,12.5 L395.5,12.5 L395.5,30.5 L377.5,30.5 L377.5,12.5 z" fill-opacity="0" stroke="#000000" stroke-width="1"/>
      <path d="M395.5,12.5 L413.5,12.5 L413.5,30.5 L395.5,30.5 L395.5,12.5 z" fill-opacity="0" stroke="#000000" stroke-width="1"/>
      <path d="M413.5,12.5 L431.5,12.5 L431.5,30.5 L413.5,30.5 L413.5,12.5 z" fill-opacity="0" stroke="#000000" stroke-width="1"/>
      <path d="M431.5,12.5 L449.5,12.5 L449.5,30.5 L431.5,30.5 L431.5,12.5 z" fill-opacity="0" stroke="#000000" stroke-width="1"/>
    </g>
    <g>
      <path d="M71.5,40.375 L89.5,40.375 L89.5,58.375 L71.5,58.375 L71.5,40.375 z" fill-opacity="0" stroke="#000000" stroke-width="1"/>
      <path d="M89.5,40.375 L107.5,40.375 L107.5,58.375 L89.5,58.375 L89.5,40.375 z" fill-opacity="0" stroke="#000000" stroke-width="1"/>
      <path d="M107.5,40.375 L125.5,40.375 L125.5,58.375 L107.5,58.375 L107.5,40.375 z" fill-opacity="0" stroke="#000000" stroke-width="1"/>
      <path d="M125.5,40.375 L143.5,40.375 L143.5,58.375 L125.5,58.375 L125.5,40.375 z" fill-opacity="0" stroke="#000000" stroke-width="1"/>
      <path d="M143.5,40.375 L161.5,40.375 L161.5,58.375 L143.5,58.375 L143.5,40.375 z" fill-opacity="0" stroke="#000000" stroke-width="1"/>
      <path d="M161.5,40.375 L179.5,40.375 L179.5,58.375 L161.5,58.375 L161.5,40.375 z" fill-opacity="0" stroke="#000000" stroke-width="1"/>
      <path d="M179.5,40.375 L197.5,40.375 L197.5,58.375 L179.5,58.375 L179.5,40.375 z" fill-opacity="0" stroke="#000000" stroke-width="1"/>
      <path d="M197.5,40.375 L215.5,40.375 L215.5,58.375 L197.5,58.375 L197.5,40.375 z" fill-opacity="0" stroke="#000000" stroke-width="1"/>
      <path d="M215.5,40.375 L233.5,40.375 L233.5,58.375 L215.5,58.375 L215.5,40.375 z" fill-opacity="0" stroke="#000000" stroke-width="1"/>
      <path d="M233.5,40.375 L251.5,40.375 L251.5,58.375 L233.5,58.375 L233.5,40.375 z" fill-opacity="0" stroke="#000000" stroke-width="1"/>
      <path d="M251.5,40.375 L269.5,40.375 L269.5,58.375 L251.5,58.375 L251.5,40.375 z" fill-opacity="0" stroke="#000000" stroke-width="1"/>
      <path d="M269.5,40.375 L287.5,40.375 L287.5,58.375 L269.5,58.375 L269.5,40.375 z" fill-opacity="0" stroke="#000000" stroke-width="1"/>
      <path d="M287.5,40.375 L305.5,40.375 L305.5,58.375 L287.5,58.375 L287.5,40.375 z" fill-opacity="0" stroke="#000000" stroke-width="1"/>
      <path d="M305.5,40.375 L323.5,40.375 L323.5,58.375 L305.5,58.375 L305.5,40.375 z" fill-opacity="0" stroke="#000000" stroke-width="1"/>
      <path d="M323.5,40.375 L341.5,40.375 L341.5,58.375 L323.5,58.375 L323.5,40.375 z" fill-opacity="0" stroke="#000000" stroke-width="1"/>
      <path d="M341.5,40.375 L359.5,40.375 L359.5,58.375 L341.5,58.375 L341.5,40.375 z" fill-opacity="0" stroke="#000000" stroke-width="1"/>
      <path d="M359.5,40.375 L377.5,40.375 L377.5,58.375 L359.5,58.375 L359.5,40.375 z" fill-opacity="0" stroke="#000000" stroke-width="1"/>
      <path d="M377.5,40.375 L395.5,40.375 L395.5,58.375 L377.5,58.375 L377.5,40.375 z" fill-opacity="0" stroke="#000000" stroke-width="1"/>
      <path d="M395.5,40.375 L413.5,40.375 L413.5,58.375 L395.5,58.375 L395.5,40.375 z" fill-opacity="0" stroke="#000000" stroke-width="1"/>
      <path d="M413.5,40.375 L431.5,40.375 L431.5,58.375 L413.5,58.375 L413.5,40.375 z" fill-opacity="0" stroke="#000000" stroke-width="1"/>
      <path d="M431.5,40.375 L449.5,40.375 L449.5,58.375 L431.5,58.375 L431.5,40.375 z" fill-opacity="0" stroke="#000000" stroke-width="1"/>
    </g>
    <g>
      <path d="M71.5,68.25 L89.5,68.25 L89.5,86.25 L71.5,86.25 L71.5,68.25 z" fill-opacity="0" stroke="#000000" stroke-width="1"/>
      <path d="M89.5,68.25 L107.5,68.25 L107.5,86.25 L89.5,86.25 L89.5,68.25 z" fill-opacity="0" stroke="#000000" stroke-width="1"/>
      <path d="M107.5,68.25 L125.5,68.25 L125.5,86.25 L107.5,86.25 L107.5,68.25 z" fill-opacity="0" stroke="#000000" stroke-width="1"/>
      <path d="M125.5,68.25 L143.5,68.25 L143.5,86.25 L125.5,86.25 L125.5,68.25 z" fill-opacity="0" stroke="#000000" stroke-width="1"/>
      <path d="M143.5,68.25 L161.5,68.25 L161.5,86.25 L143.5,86.25 L143.5,68.25 z" fill-opacity="0" stroke="#000000" stroke-width="1"/>
      <path d="M161.5,68.25 L179.5,68.25 L179.5,86.25 L161.5,86.25 L161.5,68.25 z" fill-opacity="0" stroke="#000000" stroke-width="1"/>
      <path d="M179.5,68.25 L197.5,68.25 L197.5,86.25 L179.5,86.25 L179.5,68.25 z" fill-opacity="0" stroke="#000000" stroke-width="1"/>
      <path d="M197.5,68.25 L215.5,68.25 L215.5,86.25 L197.5,86.25 L197.5,68.25 z" fill-opacity="0" stroke="#000000" stroke-width="1"/>
      <path d="M215.5,68.25 L233.5,68.25 L233.5,86.25 L215.5,86.25 L215.5,68.25 z" fill-opacity="0" stroke="#000000" stroke-width="1"/>
      <path d="M233.5,68.25 L251.5,68.25 L251.5,86.25 L233.5,86.25 L233.5,68.25 z" fill-opacity="0" stroke="#000000" stroke-width="1"/>
      <path d="M251.5,68.25 L269.5,68.25 L269.5,86.25 L251.5,86.25 L251.5,68.25 z" fill-opacity="0" stroke="#000000" stroke-width="1"/>
      <path d="M269.5,68.25 L287.5,68.25 L287.5,86.25 L269.5,86.25 L269.5,68.25 z" fill-opacity="0" stroke="#000000" stroke-width="1"/>
      <path d="M287.5,68.25 L305.5,68.25 L305.5,86.25 L287.5,86.25 L287.5,68.25 z" fill-opacity="0" stroke="#000000" stroke-width="1"/>
      <path d="M305.5,68.25 L323.5,68.25 L323.5,86.25 L305.5,86.25 L305.5,68.25 z" fill-opacity="0" stroke="#000000" stroke-width="1"/>
      <path d="M323.5,68.25 L341.5,68.25 L341.5,86.25 L323.5,86.25 L323.5,68.25 z" fill-opacity="0" stroke="#000000" stroke-width="1"/>
      <path d="M341.5,68.25 L359.5,68.25 L359.5,86.25 L341.5,86.25 L341.5,68.25 z" fill-opacity="0" stroke="#000000" stroke-width="1"/>
      <path d="M359.5,68.25 L377.5,68.25 L377.5,86.25 L359.5,86.25 L359.5,68.25 z" fill-opacity="0" stroke="#000000" stroke-width="1"/>
      <path d="M377.5,68.25 L395.5,68.25 L395.5,86.25 L377.5,86.25 L377.5,68.25 z" fill-opacity="0" stroke="#000000" stroke-width="1"/>
      <path d="M395.5,68.25 L413.5,68.25 L413.5,86.25 L395.5,86.25 L395.5,68.25 z" fill-opacity="0" stroke="#000000" stroke-width="1"/>
      <path d="M413.5,68.25 L431.5,68.25 L431.5,86.25 L413.5,86.25 L413.5,68.25 z" fill-opacity="0" stroke="#000000" stroke-width="1"/>
      <path d="M431.5,68.25 L449.5,68.25 L449.5,86.25 L431.5,86.25 L431.5,68.25 z" fill-opacity="0" stroke="#000000" stroke-width="1"/>
    </g>
    <g>
      <path d="M71.5,96.125 L89.5,96.125 L89.5,114.125 L71.5,114.125 L71.5,96.125 z" fill-opacity="0" stroke="#000000" stroke-width="1"/>
      <path d="M89.5,96.125 L107.5,96.125 L107.5,114.125 L89.5,114.125 L89.5,96.125 z" fill-opacity="0" stroke="#000000" stroke-width="1"/>
      <path d="M107.5,96.125 L125.5,96.125 L125.5,114.125 L107.5,114.125 L107.5,96.125 z" fill-opacity="0" stroke="#000000" stroke-width="1"/>
      <path d="M125.5,96.125 L143.5,96.125 L143.5,114.125 L125.5,114.125 L125.5,96.125 z" fill-opacity="0" stroke="#000000" stroke-width="1"/>
      <path d="M143.5,96.125 L161.5,96.125 L161.5,114.125 L143.5,114.125 L143.5,96.125 z" fill-opacity="0" stroke="#000000" stroke-width="1"/>
      <path d="M161.5,96.125 L179.5,96.125 L179.5,114.125 L161.5,114.125 L161.5,96.125 z" fill-opacity="0" stroke="#000000" stroke-width="1"/>
      <path d="M179.5,96.125 L197.5,96.125 L197.5,114.125 L179.5,114.125 L179.5,96.125 z" fill-opacity="0" stroke="#000000" stroke-width="1"/>
      <path d="M197.5,96.125 L215.5,96.125 L215.5,114.125 L197.5,114.125 L197.5,96.125 z" fill-opacity="0" stroke="#000000" stroke-width="1"/>
      <path d="M215.5,96.125 L233.5,96.125 L233.5,114.125 L215.5,114.125 L215.5,96.125 z" fill-opacity="0" stroke="#000000" stroke-width="1"/>
      <path d="M233.5,96.125 L251.5,96.125 L251.5,114.125 L233.5,114.125 L233.5,96.125 z" fill-opacity="0" stroke="#000000" stroke-width="1"/>
      <path d="M251.5,96.125 L269.5,96.125 L269.5,114.125 L251.5,114.125 L251.5,96.125 z" fill-opacity="0" stroke="#000000" stroke-width="1"/>
      <path d="M269.5,96.125 L287.5,96.125 L287.5,114.125 L269.5,114.125 L269.5,96.125 z" fill-opacity="0" stroke="#000000" stroke-width="1"/>
      <path d="M287.5,96.125 L305.5,96.125 L305.5,114.125 L287.5,114.125 L287.5,96.125 z" fill-opacity="0" stroke="#000000" stroke-width="1"/>
      <path d="M305.5,96.125 L323.5,96.125 L323.5,114.125 L305.5,114.125 L305.5,96.125 z" fill-opacity="0" stroke="#000000" stroke-width="1"/>
      <path d="M323.5,96.125 L341.5,96.125 L341.5,114.125 L323.5,114.125 L323.5,96.125 z" fill-opacity="0" stroke="#000000" stroke-width="1"/>
      <path d="M341.5,96.125 L359.5,96.125 L359.5,114.125 L341.5,114.125 L341.5,96.125 z" fill-opacity="0" stroke="#000000" stroke-width="1"/>
      <path d="M359.5,96.125 L377.5,96.125 L377.5,114.125 L359.5,114.125 L359.5,96.125 z" fill-opacity="0" stroke="#000000" stroke-width="1"/>
      <path d="M377.5,96.125 L395.5,96.125 L395.5,114.125 L377.5,114.125 L377.5,96.125 z" fill-opacity="0" stroke="#000000" stroke-width="1"/>
      <path d="M395.5,96.125 L413.5,96.125 L413.5,114.125 L395.5,114.125 L395.5,96.125 z" fill-opacity="0" stroke="#000000" stroke-width="1"/>
      <path d="M413.5,96.125 L431.5,96.125 L431.5,114.125 L413.5,114.125 L413.5,96.125 z" fill-opacity="0" stroke="#000000" stroke-width="1"/>
      <path d="M431.5,96.125 L449.5,96.125 L449.5,114.125 L431.5,114.125 L431.5,96.125 z" fill-opacity="0" stroke="#000000" stroke-width="1"/>
    </g>
    <g>
      <path d="M71.5,124 L89.5,124 L89.5,142 L71.5,142 L71.5,124 z" fill-opacity="0" stroke="#000000" stroke-width="1"/>
      <path d="M89.5,124 L107.5,124 L107.5,142 L89.5,142 L89.5,124 z" fill-opacity="0" stroke="#000000" stroke-width="1"/>
      <path d="M107.5,124 L125.5,124 L125.5,142 L107.5,142 L107.5,124 z" fill-opacity="0" stroke="#000000" stroke-width="1"/>
      <path d="M125.5,124 L143.5,124 L143.5,142 L125.5,142 L125.5,124 z" fill-opacity="0" stroke="#000000" stroke-width="1"/>
      <path d="M143.5,124 L161.5,124 L161.5,142 L143.5,142 L143.5,124 z" fill-opacity="0" stroke="#000000" stroke-width="1"/>
      <path d="M161.5,124 L179.5,124 L179.5,142 L161.5,142 L161.5,124 z" fill-opacity="0" stroke="#000000" stroke-width="1"/>
      <path d="M179.5,124 L197.5,124 L197.5,142 L179.5,142 L179.5,124 z" fill-opacity="0" stroke="#000000" stroke-width="1"/>
      <path d="M197.5,124 L215.5,124 L215.5,142 L197.5,142 L197.5,124 z" fill-opacity="0" stroke="#000000" stroke-width="1"/>
      <path d="M215.5,124 L233.5,124 L233.5,142 L215.5,142 L215.5,124 z" fill-opacity="0" stroke="#000000" stroke-width="1"/>
      <path d="M233.5,124 L251.5,124 L251.5,142 L233.5,142 L233.5,124 z" fill-opacity="0" stroke="#000000" stroke-width="1"/>
      <path d="M251.5,124 L269.5,124 L269.5,142 L251.5,142 L251.5,124 z" fill-opacity="0" stroke="#000000" stroke-width="1"/>
      <path d="M269.5,124 L287.5,124 L287.5,142 L269.5,142 L269.5,124 z" fill-opacity="0" stroke="#000000" stroke-width="1"/>
      <path d="M287.5,124 L305.5,124 L305.5,142 L287.5,142 L287.5,124 z" fill-opacity="0" stroke="#000000" stroke-width="1"/>
      <path d="M305.5,124 L323.5,124 L323.5,142 L305.5,142 L305.5,124 z" fill-opacity="0" stroke="#000000" stroke-width="1"/>
      <path d="M323.5,124 L341.5,124 L341.5,142 L323.5,142 L323.5,124 z" fill-opacity="0" stroke="#000000" stroke-width="1"/>
      <path d="M341.5,124 L359.5,124 L359.5,142 L341.5,142 L341.5,124 z" fill-opacity="0" stroke="#000000" stroke-width="1"/>
      <path d="M359.5,124 L377.5,124 L377.5,142 L359.5,142 L359.5,124 z" fill-opacity="0" stroke="#000000" stroke-width="1"/>
      <path d="M377.5,124 L395.5,124 L395.5,142 L377.5,142 L377.5,124 z" fill-opacity="0" stroke="#000000" stroke-width="1"/>
      <path d="M395.5,124 L413.5,124 L413.5,142 L395.5,142 L395.5,124 z" fill-opacity="0" stroke="#000000" stroke-width="1"/>
      <path d="M413.5,124 L431.5,124 L431.5,142 L413.5,142 L413.5,124 z" fill-opacity="0" stroke="#000000" stroke-width="1"/>
      <path d="M431.5,124 L449.5,124 L449.5,142 L431.5,142 L431.5,124 z" fill-opacity="0" stroke="#000000" stroke-width="1"/>
    </g>
  </g>
</svg>
